<svg xmlns="http://www.w3.org/2000/svg" xmlns:xlink="http://www.w3.org/1999/xlink" viewBox="0 0 597 422.943">
  <defs>
    <style>
      .cls-1, .cls-3 {
        fill: #4183f1;
      }

      .cls-1, .cls-14, .cls-6 {
        opacity: 0.1;
      }

      .cls-2 {
        opacity: 0.5;
      }

      .cls-4 {
        fill: none;
        stroke: #535461;
        stroke-miterlimit: 10;
        stroke-width: 2px;
      }

      .cls-5 {
        fill: #618ae4;
      }

      .cls-7 {
        fill: #ffd037;
      }

      .cls-8 {
        fill: #a8a8a8;
      }

      .cls-9 {
        opacity: 0.2;
      }

      .cls-10 {
        fill: #e6e6f0;
      }

      .cls-11 {
        fill: #fdc2cc;
      }

      .cls-12 {
        fill: #565171;
      }

      .cls-13 {
        fill: #b45181;
      }

      .cls-15 {
        fill: #f569bc;
      }

      .cls-16 {
        fill: #f7df1e;
      }

      .cls-17 {
        fill: url(#linear-gradient);
      }

      .cls-18 {
        fill: #4f4d59;
      }

      .cls-19 {
        fill: #c48c96;
      }

      .cls-20 {
        fill: #714b4f;
      }

      .cls-21 {
        fill: #ba7855;
      }

      .cls-22 {
        fill: #503f43;
      }

      .cls-23 {
        fill: #e44d26;
      }

      .cls-24 {
        fill: #f16529;
      }

      .cls-25 {
        fill: #ebebeb;
      }

      .cls-26, .cls-32 {
        fill: #fff;
      }

      .cls-27 {
        fill: url(#linear-gradient-2);
      }

      .cls-28, .cls-35 {
        opacity: 0.05;
      }

      .cls-29 {
        fill: #264de4;
      }

      .cls-30 {
        fill: #2965f1;
      }

      .cls-31 {
        fill: #47465a;
      }

      .cls-32 {
        opacity: 0.3;
      }

      .cls-33 {
        fill: #e1a0a7;
      }

      .cls-34 {
        fill: #8f5a6a;
      }
    </style>
    <linearGradient id="linear-gradient" x1="0.5" y1="1" x2="0.5" gradientUnits="objectBoundingBox">
      <stop offset="0" stop-color="gray" stop-opacity="0.251"/>
      <stop offset="0.54" stop-color="gray" stop-opacity="0.122"/>
      <stop offset="1" stop-color="gray" stop-opacity="0.102"/>
    </linearGradient>
    <linearGradient id="linear-gradient-2" x1="0.5" y1="1.001" x2="0.5" y2="0" xlink:href="#linear-gradient"/>
  </defs>
  <g id="undraw_static_assets_rpm6" transform="translate(0.003 -0.09)">
    <ellipse id="Ellipse_39" data-name="Ellipse 39" class="cls-1" cx="122.503" cy="23.81" rx="122.503" ry="23.81" transform="translate(349.667 315.417)"/>
    <g id="Group_3" data-name="Group 3" class="cls-2" transform="translate(349.813 56.431)">
      <path id="Path_133" data-name="Path 133" class="cls-3" d="M705.969,186c-1.652.469-3.675,1.692-4.671,5.037-1.953,6.555,2.585,11.012,1.09,17.846a13.332,13.332,0,0,1-2.318,5.008c-1.826,2.475-3.808,3.646-5.732,5.379a17.1,17.1,0,0,0-5.037,8.271,22.9,22.9,0,0,0-.226,10.751,42.171,42.171,0,0,0,2.869,7.535,55.64,55.64,0,0,1,2.962,9.488,23.111,23.111,0,0,1,.649,4.822,42.423,42.423,0,0,1-.58,6.445l-2.776,19.37a58.209,58.209,0,0,0-.759,7.656,38.034,38.034,0,0,0,.887,7.645c.974,5.124,2.023,10.433,4.254,13.145s6.034,1.739,8.369-3.75c2.22-5.251,2.272-12.258,4.231-17.869,3.089-8.839,9.227-10.027,12.635-18.46,3.269-8.114,2.266-18.014,3.924-27.241,1.159-6.613,3.715-12.641,5.216-19.173a60.723,60.723,0,0,0,.22-26.406,35.1,35.1,0,0,0-8.219-15.962c-1.443-1.594-2.991-3.014-4.8-3.159-1.93-.151-3.617,2.278-5.524,3.008C710.426,186.247,708.212,185.36,705.969,186Z" transform="translate(-688.542 -182.368)"/>
      <path id="Path_134" data-name="Path 134" class="cls-4" d="M724.3,183.23s-3.269,83.658-17.017,132.988" transform="translate(-696.419 -182.731)"/>
      <path id="Path_135" data-name="Path 135" class="cls-4" d="M710.41,198s14.693,13.377,11.9,38.833" transform="translate(-697.735 -188.94)"/>
      <path id="Path_136" data-name="Path 136" class="cls-4" d="M689.14,263.68s24.117,4.851,22.326,19.277" transform="translate(-688.793 -216.552)"/>
      <path id="Path_137" data-name="Path 137" class="cls-4" d="M748.784,215.07s-9.76,8.543-18.454,32.741" transform="translate(-706.11 -196.116)"/>
      <path id="Path_138" data-name="Path 138" class="cls-4" d="M737.013,331.787s-6.659,5.216-12-13.047" transform="translate(-703.873 -239.7)"/>
      <path id="Path_139" data-name="Path 139" class="cls-4" d="M696.14,352.206s13.58-1.774,14.832-10.276" transform="translate(-691.736 -249.449)"/>
    </g>
    <path id="Path_140" data-name="Path 140" class="cls-5" d="M753.151,89.02c-3.362.5-7.407,2.058-9.071,6.862-3.263,9.424,6.654,16.559,4.37,26.406a14.8,14.8,0,0,1-4.138,7.1c-3.478,3.425-7.454,4.921-11.221,7.245a21.156,21.156,0,0,0-9.447,11.592,24.417,24.417,0,0,0,.806,15.805c1.768,4.451,4.44,7.772,6.828,11.435a77.483,77.483,0,0,1,7.239,14.316,27.2,27.2,0,0,1,1.924,7.146,43.332,43.332,0,0,1-.469,9.424L736.523,234.6a59.139,59.139,0,0,0-.661,11.186,43.944,43.944,0,0,0,2.747,11.36c2.62,7.662,5.425,15.649,10.369,19.868s12.7,3.315,16.878-4.532c3.976-7.471,3.246-17.782,6.636-25.809,5.344-12.653,17.909-13.678,23.955-25.688,5.8-11.522,2.556-26.261,4.886-39.65,1.669-9.592,6.19-18.17,8.508-27.612a65.036,65.036,0,0,0-2.678-38.833,59.589,59.589,0,0,0-18.895-24.476c-3.176-2.521-6.544-4.8-10.317-5.216-4.011-.446-7.216,2.927-11.07,3.779C762.4,89.913,757.713,88.342,753.151,89.02Z" transform="translate(-353.083 -85.07)"/>
    <path id="Path_141" data-name="Path 141" class="cls-4" d="M797.821,86s3.165,122.81-19.451,193.827" transform="translate(-376.493 -85.423)"/>
    <path id="Path_142" data-name="Path 142" class="cls-4" d="M759.38,104.68s31.994,21.445,29.252,58.632" transform="translate(-368.51 -93.276)"/>
    <path id="Path_143" data-name="Path 143" class="cls-4" d="M723.15,198.85s50.494,10,48.5,31.031" transform="translate(-353.278 -132.866)"/>
    <path id="Path_144" data-name="Path 144" class="cls-4" d="M843.656,135.92s-19.19,11.424-34.306,46.025" transform="translate(-389.518 -106.41)"/>
    <path id="Path_145" data-name="Path 145" class="cls-4" d="M830.289,304.819s-13.157,6.955-26.389-20.639" transform="translate(-387.226 -168.739)"/>
    <path id="Path_146" data-name="Path 146" class="cls-4" d="M749,331.3s27.9-1,29.484-13.377" transform="translate(-364.146 -182.924)"/>
    <path id="Path_147" data-name="Path 147" class="cls-5" d="M142.545,663.66s4.857,6.375-2.243,15.939-12.965,17.689-10.583,23.671c0,0,10.711-17.811,19.428-18.06S152.137,674.371,142.545,663.66Z" transform="translate(-103.569 -328.276)"/>
    <path id="Path_148" data-name="Path 148" class="cls-6" d="M142.768,663.66a7.864,7.864,0,0,1,1.02,1.994c8.508,9.992,13.035,19.318,4.863,19.555-7.616.22-16.75,13.835-18.941,17.278a7.391,7.391,0,0,0,.261.782s10.711-17.811,19.428-18.06S152.36,674.371,142.768,663.66Z" transform="translate(-103.792 -328.276)"/>
    <path id="Path_149" data-name="Path 149" class="cls-7" d="M166.979,676.6c0,2.237-.249,4.057-.58,4.057s-.58-1.814-.58-4.057.313-1.159.62-1.159S166.979,674.362,166.979,676.6Z" transform="translate(-118.973 -333.118)"/>
    <path id="Path_150" data-name="Path 150" class="cls-7" d="M170.392,681.12c-1.965,1.072-3.675,1.739-3.82,1.443s1.321-1.362,3.286-2.429,1.188-.29,1.339,0S172.351,680.048,170.392,681.12Z" transform="translate(-119.285 -334.972)"/>
    <path id="Path_151" data-name="Path 151" class="cls-5" d="M100.091,663.66s-4.857,6.375,2.243,15.939,12.954,17.683,10.583,23.665c0,0-10.711-17.811-19.428-18.06S90.487,674.371,100.091,663.66Z" transform="translate(-86.756 -328.276)"/>
    <path id="Path_152" data-name="Path 152" class="cls-6" d="M100.091,663.66a7.865,7.865,0,0,0-.991,1.994c-8.508,9.992-13.035,19.318-4.863,19.555,7.616.22,16.75,13.835,18.941,17.278a7.382,7.382,0,0,1-.261.782s-10.711-17.811-19.428-18.06S90.487,674.371,100.091,663.66Z" transform="translate(-86.756 -328.276)"/>
    <path id="Path_153" data-name="Path 153" class="cls-7" d="M92.4,676.6c0,2.237.249,4.057.58,4.057s.58-1.814.58-4.057-.313-1.159-.62-1.159S92.4,674.362,92.4,676.6Z" transform="translate(-88.106 -333.118)"/>
    <path id="Path_154" data-name="Path 154" class="cls-7" d="M86.183,681.12c1.965,1.072,3.675,1.739,3.82,1.443s-1.321-1.362-3.286-2.429-1.188-.29-1.339,0S84.224,680.048,86.183,681.12Z" transform="translate(-84.99 -334.972)"/>
    <path id="Path_155" data-name="Path 155" class="cls-8" d="M95.07,725.24s13.58-.417,17.672-3.333,20.865-6.375,21.9-1.739,20.407,23.247,5.077,23.369-35.622-2.388-39.708-4.874S95.07,725.24,95.07,725.24Z" transform="translate(-89.229 -351.08)"/>
    <path id="Path_156" data-name="Path 156" class="cls-9" d="M139.994,747.234c-15.33.122-35.622-2.388-39.708-4.874-3.112-1.9-4.353-8.694-4.764-11.829H95.07s.858,10.954,4.944,13.441,24.378,5,39.708,4.874c4.428-.035,5.952-1.611,5.871-3.941C144.979,746.33,143.292,747.211,139.994,747.234Z" transform="translate(-89.229 -356.388)"/>
    <path id="Path_157" data-name="Path 157" class="cls-5" d="M1051.709,651.324a6.764,6.764,0,0,0,2.22-3.35,2.973,2.973,0,0,0-1.553-3.414c-1.426-.545-2.95.441-4.1,1.443s-2.481,2.139-3.993,1.924a6.073,6.073,0,0,0,1.878-5.686,2.376,2.376,0,0,0-.522-1.159c-.794-.846-2.226-.481-3.176.185-3.014,2.121-3.854,6.213-3.872,9.9a18.985,18.985,0,0,1-.058-4.057c-.012-1.345-.383-2.9-1.53-3.6a4.637,4.637,0,0,0-2.318-.551,4.827,4.827,0,0,0-3.791,1.078c-1.159,1.229-.852,3.3.151,4.637a15.086,15.086,0,0,0,3.924,3.141,8.694,8.694,0,0,1,2.805,2.672,2.655,2.655,0,0,1,.208.475h8.491A23.662,23.662,0,0,0,1051.709,651.324Z" transform="translate(-482.342 -318.577)"/>
    <path id="Path_158" data-name="Path 158" class="cls-1" d="M209.049,409.975c18.443,23.45,11.279,57.71-.44,85.142-3.924,9.187-8.363,18.906-6.706,28.754,2.023,12.044,12.751,20.865,24.065,25.5a71.632,71.632,0,0,0,64.109-5.28c16.339-10.166,28.041-26.7,44.658-36.4,27.82-16.229,63.21-10.1,93.407,1.078,21.364,7.911,44.721,18.2,65.952,9.934,14.936-5.8,25.264-19.979,30.892-34.99,2.718-7.251,4.689-15.069,9.853-20.865a36.737,36.737,0,0,1,11.233-7.882c37.674-18.669,85.2-8.694,121.761-29.374,24.7-13.98,40.508-40.357,47.527-67.859s6.184-56.342,4.4-84.661c-1.264-20.129-3.53-41.615-16.391-57.154-13.6-16.431-36.955-22.546-58.058-19.422s-40.241,14.31-57.049,27.421c-21.033,16.385-40.537,36.793-66.363,43.435-17.585,4.521-36.085,2.046-54.227,1.194-30.324-1.432-60.654,1.739-90.811,5.216-28.87,3.338-57.959,7.013-85.449,16.4-19.463,6.648-35.065,18.709-53.444,27.137-11.98,5.495-25.044,7.013-36.381,14.009-13.974,8.619-26.777,23.613-23.184,41.151C181.779,389.161,199.254,397.531,209.049,409.975Z" transform="translate(-124.006 -131.547)"/>
    <ellipse id="Ellipse_40" data-name="Ellipse 40" class="cls-1" cx="247.874" cy="23.81" rx="247.874" ry="23.81" transform="translate(72.262 230.797)"/>
    <path id="Path_249" data-name="Path 249" class="cls-1" d="M122.5,0c67.656,0,122.5,10.66,122.5,23.81s-54.846,23.81-122.5,23.81S0,36.959,0,23.81,54.846,0,122.5,0Z" transform="translate(7.128 368.16)"/>
    <path id="Path_159" data-name="Path 159" class="cls-10" d="M523.3,511.48,521.36,514.3s2.115,2.823,2.318,3.176,6.173-.174,6.173-.174l.527-2.116-.881-2.469Z" transform="translate(-268.444 -264.298)"/>
    <path id="Path_160" data-name="Path 160" class="cls-11" d="M324.273,423.67l-3.883.7,2.469,4.77,2.649,1.408,2.469,1.762.707-1.936-1.768-3.709Z" transform="translate(-134.696 -178.076)"/>
    <path id="Path_161" data-name="Path 161" class="cls-12" d="M513.31,429.5s20.645,4.938,24.523,10.433c0,0,3.53,3,0,8.468s-8.468,17.822-8.468,17.822-3.53,12-4.938,12.879-9.529,1.588-10.236-1.739c0,0,4.585-7.233,4.585-10.589s7.587-19.231,7.587-19.231-17.289-1.942-22.761-.707S506.076,427.554,513.31,429.5Z" transform="translate(-260.214 -229.777)"/>
    <path id="Path_162" data-name="Path 162" class="cls-6" d="M513.31,429.5s20.645,4.938,24.523,10.433c0,0,3.53,3,0,8.468s-8.468,17.822-8.468,17.822-3.53,12-4.938,12.879-9.529,1.588-10.236-1.739c0,0,4.585-7.233,4.585-10.589s7.587-19.231,7.587-19.231-17.289-1.942-22.761-.707S506.076,427.554,513.31,429.5Z" transform="translate(-260.214 -229.777)"/>
    <path id="Path_163" data-name="Path 163" class="cls-12" d="M470.331,434.375c-.041,1.026-.151,2.179-.307,3.42-1.13,8.984-4.811,22.343-4.811,22.343s-3.7,7.94-4.764,13.058-8.294,6.376-8.294,6.376-19.764,2.318-23.821,1.414-10.433,2.649-13.586,2.116-5.118-7.94-5.118-7.94a38.252,38.252,0,0,0,15.881-3.35c8.114-3.7,19.764-1.942,19.764-1.942a6.636,6.636,0,0,0,4.057-3.35c1.235-2.649,1.235-18.7.881-19.764-2.318-6.955-2.127-11.418-1.461-14.02a7,7,0,0,1,1.461-3.1Z" transform="translate(-221.472 -229.892)"/>
    <path id="Path_164" data-name="Path 164" class="cls-6" d="M498.725,434.354c-.041,1.026-.151,2.179-.307,3.42-1.773.139-6.746.272-10.433-2.005-3.478-2.133-8.537-2.857-10.815-3.083a7,7,0,0,1,1.461-3.1Z" transform="translate(-249.867 -229.871)"/>
    <path id="Path_165" data-name="Path 165" class="cls-10" d="M500.291,427.925c-.823,2.318-2.087,5.037-2.087,5.037s-6.526.881-11.117-1.942-12-3.176-12-3.176c1.2-.736,2.011-2.973,2.515-4.932a31.262,31.262,0,0,0,.661-3.362s21.7,4.411,22.6,5.118C501.206,424.946,500.847,426.349,500.291,427.925Z" transform="translate(-248.992 -225.65)"/>
    <path id="Path_166" data-name="Path 166" class="cls-11" d="M564.3,292.406l-26.319,15.887-2.614,1.577v-7.761l1.814-.869,22.181-10.6s1.061-19.231,3.883-16.229S564.3,292.406,564.3,292.406Z" transform="translate(-274.334 -164.498)"/>
    <path id="Path_167" data-name="Path 167" class="cls-6" d="M537.984,327.984l-2.614,1.577V321.8l1.814-.869a57.122,57.122,0,0,0,.8,7.054Z" transform="translate(-274.334 -184.189)"/>
    <path id="Path_168" data-name="Path 168" class="cls-13" d="M504.93,330.067l18.877-10.937s.354,10.589,2.469,12.171c0,0-7.761,2.318-10.763,7.233Z" transform="translate(-261.537 -183.433)"/>
    <path id="Path_169" data-name="Path 169" class="cls-6" d="M504.93,330.067l18.877-10.937s.354,10.589,2.469,12.171c0,0-7.761,2.318-10.763,7.233Z" transform="translate(-261.537 -183.433)"/>
    <path id="Path_170" data-name="Path 170" class="cls-11" d="M570.043,340.747a117.75,117.75,0,0,1-14.925,5.35,11.718,11.718,0,0,1-4.132.475c-4.057-.707,1.061-5.8,1.061-5.8l2.133-.33,11.453-1.785s1.235-17.643,3.35-16.229S570.043,340.747,570.043,340.747Z" transform="translate(-280.242 -184.787)"/>
    <path id="Path_171" data-name="Path 171" class="cls-11" d="M505.461,320.792s-7.587,5.645-4.764,12.7-14.646-4.237-14.646-4.237,5.645-8.468,6.88-14.82S505.461,320.792,505.461,320.792Z" transform="translate(-253.6 -180.713)"/>
    <path id="Path_172" data-name="Path 172" class="cls-6" d="M502.119,427.925a39.992,39.992,0,0,0-10.2-2.376,54.419,54.419,0,0,1-12.479-2.637,31.27,31.27,0,0,0,.661-3.362s21.7,4.411,22.6,5.118C503.035,424.946,502.676,426.349,502.119,427.925Z" transform="translate(-250.821 -225.65)"/>
    <path id="Path_173" data-name="Path 173" class="cls-6" d="M555.108,359.221a11.719,11.719,0,0,1-4.133.475c-4.057-.707,1.061-5.8,1.061-5.8l2.133-.33A6.22,6.22,0,0,1,555.108,359.221Z" transform="translate(-280.237 -197.912)"/>
    <path id="Path_174" data-name="Path 174" class="cls-13" d="M488.552,332.167s-6.88-.174-9.349,2.649-1.942,10.433-1.942,10.433-.516,15.237,3.35,23.763a1.16,1.16,0,0,1,.041.875c-.041.1-.041.041-.041.041s-2.469,11.117-4.938,13.058,5.292,4.237,14.49,5.292,12.879,3.7,12.879,3.7,1.588-1.739,1.739-5.645-2.452-32.289-2.452-32.289,9.7,2.469,15.527-.527c0,0,2.649,1.414,5.118-2.469s-1.739-8.114-1.739-8.114-3.883,3.883-14.646-1.235S491.9,331.993,488.552,332.167Z" transform="translate(-249.043 -188.911)"/>
    <path id="Path_175" data-name="Path 175" class="cls-10" d="M405.676,509.35H403.56v3l2.116,4.764s2.823.527,3,.527,2.469-.527,2.469-.527l.707-1.235S404.087,512.874,405.676,509.35Z" transform="translate(-218.92 -263.403)"/>
    <path id="Path_176" data-name="Path 176" class="cls-13" d="M519.366,514.006l-3.176,7.059L529.6,527.44l10.589.354s.881-2.469-2.649-3.7l-2.823-.527s-3.7-6.706-4.057-9.853c0,0-3.53.707-4.057,3.35C526.6,517,521.661,519.471,519.366,514.006Z" transform="translate(-266.271 -265.236)"/>
    <path id="Path_177" data-name="Path 177" class="cls-13" d="M400.249,508.13l-1.078.881-4.741,3.883,10.937,14.49s6.173,2.649,9,0c0,0,1.739-1.739-2.115-3.176,0,0-3,.527-3-2.469s.707-6.173,1.739-6.88c0,0-2.649-.881-3.35-.174a11.2,11.2,0,0,0-1.414,1.942S399.9,514.129,400.249,508.13Z" transform="translate(-215.082 -262.89)"/>
    <path id="Path_178" data-name="Path 178" class="cls-6" d="M496.807,315.05a21.431,21.431,0,0,1-.707,2.643,9.175,9.175,0,0,0,11.748,5.048,14.583,14.583,0,0,1,1.49-1.339S498.042,308.7,496.807,315.05Z" transform="translate(-257.825 -180.97)"/>
    <path id="Path_179" data-name="Path 179" class="cls-6" d="M495.64,357s5.471,7.233,13.412,7.413" transform="translate(-257.632 -199.354)"/>
    <g id="Group_4" data-name="Group 4" class="cls-14" transform="translate(225.981 143.279)">
      <path id="Path_180" data-name="Path 180" d="M551.446,369.132a1.989,1.989,0,0,1-.325-.122q-.255.133-.522.249a3.3,3.3,0,0,0,.846-.128Z" transform="translate(-506.718 -347.681)"/>
      <path id="Path_181" data-name="Path 181" d="M551.937,351.487a8.771,8.771,0,0,0-.614-.707,6.573,6.573,0,0,1-4.022,1.379,9.737,9.737,0,0,0,4.637-.672Z" transform="translate(-505.331 -340.017)"/>
      <path id="Path_182" data-name="Path 182" d="M524.71,369.92l.035.377a35.042,35.042,0,0,0,7.059.58A36.736,36.736,0,0,1,524.71,369.92Z" transform="translate(-495.834 -348.064)"/>
      <path id="Path_183" data-name="Path 183" d="M491.593,388.309c-9.175-1.061-16.936-3.35-14.49-5.292s4.938-13.058,4.938-13.058,0,.064.041-.041a1.159,1.159,0,0,0-.041-.875c-3.866-8.549-3.35-23.763-3.35-23.763s-.527-7.587,1.942-10.433c1.837-2.1,6.121-2.539,8.19-2.626a3.75,3.75,0,0,0-.58,0s-6.88-.174-9.349,2.649-1.942,10.433-1.942,10.433-.516,15.237,3.35,23.763a1.159,1.159,0,0,1,.041.875c-.041.1-.041.041-.041.041s-2.452,11.082-4.944,13.023,5.292,4.237,14.49,5.292,12.879,3.7,12.879,3.7a4.521,4.521,0,0,0,.487-.713A36.212,36.212,0,0,0,491.593,388.309Z" transform="translate(-474.888 -332.211)"/>
    </g>
    <circle id="Ellipse_42" data-name="Ellipse 42" class="cls-11" cx="9.175" cy="9.175" r="9.175" transform="translate(237.922 123.671)"/>
    <path id="Path_184" data-name="Path 184" class="cls-6" d="M501.714,299.177c-.759,1.9-3.025,2.62-5.013,3.112-2.84.7-5.9,1.379-8.619.3a1.883,1.883,0,0,0-1.159-.226,1.542,1.542,0,0,0-.765.667c-3,4.266-2.51,9.952-3.286,15.11a8.393,8.393,0,0,1-1.739,4.463c-2.11,2.318-6.092,2.231-8.033,4.695-1.281,1.623-1.293,3.878-1.281,5.947q0,3.31-.058,6.625a9.782,9.782,0,0,1-.759,4.237c-1.113,2.179-3.594,3.217-5.883,4.057a10.087,10.087,0,0,1-4.428.927,3.46,3.46,0,0,1-3.257-2.689c-.272-2.075,1.866-3.524,3.338-5.019,2.353-2.382,3.321-5.848,3.408-9.2a9.853,9.853,0,0,0-.58-3.982c-.539-1.316-1.5-2.423-2.081-3.721-1.785-4,.417-8.624,3.054-12.125s5.877-6.915,6.439-11.256a15.608,15.608,0,0,1,.4-2.788c.406-1.263,1.368-4.753,2.428-5.552a12.617,12.617,0,0,1,5.8-2.411c1.629-.238,3.292-.151,4.909-.464,1.889-.365,3.646-1.264,5.535-1.6,4.086-.725,8.52,4.022,10.311,7.767C500.885,297.2,502.177,298.012,501.714,299.177Z" transform="translate(-241.559 -170.435)"/>
    <path id="Path_185" data-name="Path 185" class="cls-15" d="M501.714,298.567c-.759,1.9-3.025,2.62-5.013,3.112-2.84.7-5.9,1.379-8.619.3a1.884,1.884,0,0,0-1.159-.226,1.541,1.541,0,0,0-.765.667c-3,4.266-2.51,9.952-3.286,15.11a8.393,8.393,0,0,1-1.739,4.463c-2.11,2.318-6.092,2.231-8.033,4.695-1.281,1.623-1.293,3.877-1.281,5.947q0,3.309-.058,6.625A9.783,9.783,0,0,1,471,343.5c-1.113,2.179-3.594,3.217-5.883,4.057a10.086,10.086,0,0,1-4.428.927,3.46,3.46,0,0,1-3.257-2.689c-.272-2.075,1.866-3.524,3.338-5.019,2.353-2.382,3.321-5.848,3.408-9.2a9.853,9.853,0,0,0-.58-3.982c-.539-1.316-1.5-2.423-2.081-3.721-1.785-4,.417-8.624,3.054-12.125s5.877-6.915,6.439-11.256a15.607,15.607,0,0,1,.4-2.788c.406-1.264,1.368-4.753,2.428-5.553a12.618,12.618,0,0,1,5.8-2.411c1.629-.238,3.292-.151,4.909-.464,1.889-.365,3.646-1.264,5.535-1.6,4.086-.724,8.52,4.022,10.311,7.767C500.885,296.59,502.177,297.4,501.714,298.567Z" transform="translate(-241.559 -170.178)"/>
    <path id="Path_186" data-name="Path 186" class="cls-16" d="M585,276.09H712.209v127.2H585Z" transform="translate(-295.199 -165.338)"/>
    <path id="Path_187" data-name="Path 187" d="M654.21,432.106l7.341-4.443c1.418,2.511,2.7,4.636,5.8,4.636,2.963,0,4.83-1.159,4.83-5.664v-30.65h9.014v30.774c0,9.335-5.467,13.585-13.457,13.585-7.21,0-11.394-3.736-13.519-8.241m31.872-.966,7.337-4.25c1.932,3.157,4.443,5.467,8.886,5.467,3.736,0,6.116-1.866,6.116-4.443,0-3.091-2.446-4.184-6.561-5.989l-2.253-.966c-6.5-2.767-10.818-6.244-10.818-13.585,0-6.761,5.15-11.912,13.2-11.912,5.73,0,9.841,2,12.812,7.21l-7.017,4.509c-1.545-2.77-3.218-3.864-5.8-3.864-2.639,0-4.316,1.673-4.316,3.864,0,2.7,1.673,3.8,5.537,5.467l2.253.966c7.654,3.28,11.977,6.63,11.977,14.164,0,8.114-6.375,12.557-14.944,12.557-8.383,0-13.778-4.009-16.4-9.207" transform="translate(-315.296 -214.522)"/>
    <path id="Path_188" data-name="Path 188" class="cls-17" d="M895.84,549.918s-5.952.417-9.627-5.958a21.366,21.366,0,0,0-2.533-3.6A12.172,12.172,0,0,1,881.9,533.9c.2-4.724-4.724-30.6-4.724-30.6s.614-9.853-4.312-16.014c-3.246-4.057-7.911-15.649-10.722-23.137a1.548,1.548,0,0,0,.661.348l-.116-.643h.116l-1.455-7.993a36.442,36.442,0,0,1-5.309-8.045l.33-.07,4.359-.916s7.083-10.068,7.535-15.017h1.4a170.393,170.393,0,0,1,19.625,1.026h0c0-.029-.046-.156-.1-.359h0a24.63,24.63,0,0,1-.638-3.031h.406l4.057-.267s13.962-15.6,8.827-18.477-10.473,12.937-10.473,12.937l-1.739.313-.47.087c.046-.07.093-.133.145-.2s-22.79-1.02-26.308-6.573c0,0-10.062-8.01-10.473-13.331a6.022,6.022,0,0,0-3.617-5.124,7.894,7.894,0,0,0-3.993-.748l-4.712.325.33.58h-.133a15.85,15.85,0,0,1-.742-2.087h.1c-.035-.145-.064-.29-.093-.435a11.088,11.088,0,0,0,8.167-13.655,4.434,4.434,0,0,0,1.385-.041,4.06,4.06,0,0,0,3.008-3.877v-.412a5.958,5.958,0,0,0-2.289-4.579,33.45,33.45,0,0,1-2.9-2.208,21.737,21.737,0,0,1-2.359-3.651,10.838,10.838,0,0,0-5.564-4.33c-1.7-.58-3.785-.638-5.089.58-.672.632-1.061,1.548-1.814,2.081-1.084.777-2.556.545-3.883.7a7.407,7.407,0,0,0-5.581,4.179,9.627,9.627,0,0,0-.916,4.416,11.792,11.792,0,0,0,.371,3.1c.255,1.008.632,1.982.91,2.991.58,2.087.713,4.283,1.379,6.341a7.98,7.98,0,0,0,2.568,3.9l-.2.846c-.127,0-3.327.713-5.535,5.541-1.739,3.808-7.656,7.738-10.259,9.326a4.277,4.277,0,0,0-1.936,2.689,13.963,13.963,0,0,0-.33,3.414,23.634,23.634,0,0,0,2.458,10.241c4.515,9.853,7.8,14.165,7.8,14.165s.249,3.02.267,6.2a18.3,18.3,0,0,1-.678,5.912c-.429,1-.58,3.541-.545,6.451,0,5.576.545,12.85.545,12.85s1.571.3,4,.655l1.513,26.615a12.8,12.8,0,0,1-2.9,8.891,19.671,19.671,0,0,1-3.646,3.478c-4.312,3.078-13.551,35.523-13.551,35.523a11.372,11.372,0,0,1,1.194.087l-2.84,7.923s11.348,8.694,18.251,6.318a6.688,6.688,0,0,1,2.318-.325c1.362,0,4.277-1.078,2.654-2.5a105.205,105.205,0,0,1-8.85-9.2,4.692,4.692,0,0,1,.638.377V547.4l.1.064a6.524,6.524,0,0,1,.075-.84l-.1-.035c.209-2.133.869-7.535,2.179-8.161,1.64-.823,13.76-24.847,13.76-24.847l12.114-31.211s9.65,16.634,17.863,19.5v6.955s4.515,20.535,6.161,22.79,0,11.29,0,11.29a5.627,5.627,0,0,0,1.107.974l-1.316,7.442s9.447-.411,25.461,4.515C894.814,555.871,900.975,553.2,895.84,549.918ZM858.063,442.531l-2,.5-.394.1c-.04-.249-.069-.394-.069-.394a4.057,4.057,0,0,1-1.455.354,26.739,26.739,0,0,1-1.217-6.926,46.651,46.651,0,0,1-1.223-8.578,6.15,6.15,0,0,1,.811-3.536l.667.052.464.44.035.029.238.214h0l.249.22.041.035.267.238.046.041.272.232h0l.307.255.07.058.325.261h0l.319.255.075.058.354.267.075.052.336.249.058.041.383.272.093.064.406.278h.035l.394.261.093.064.423.272.093.058.394.243.075.046.452.267.11.064.469.261h.035l.458.243.11.058.487.243.1.046.452.209.087.041.51.22.122.052.527.214h0C859.743,434.127,858.063,442.531,858.063,442.531Z" transform="translate(-386.6 -202.003)"/>
    <path id="Path_189" data-name="Path 189" class="cls-18" d="M808.288,668.16l-3.808,10.624s10.433,8,17.214,6.341a18.945,18.945,0,0,1,3.112-.5c1.4-.1,3.82-1.13,2.318-2.429A128.245,128.245,0,0,1,815.9,670.165Z" transform="translate(-387.47 -330.167)"/>
    <path id="Path_190" data-name="Path 190" class="cls-18" d="M919.033,664.687l-1.8,10.224s9.221-.4,24.859,4.411c0,0,6.016-2.608,1-5.8,0,0-5.8.4-9.418-5.8s-5.8-5.413-5.8-5.413Z" transform="translate(-434.871 -327.698)"/>
    <path id="Path_191" data-name="Path 191" class="cls-19" d="M825.039,524.618l1.739,31.112a12.866,12.866,0,0,1-3.066,9.1,18.86,18.86,0,0,1-3.31,3.089c-4.208,3.008-13.232,34.677-13.232,34.677s10.224.58,13.029,2.608c0,0,.58-8.016,2.2-8.821s13.429-24.256,13.429-24.256l11.829-30.469s9.418,16.229,17.44,19.045v6.816s4.411,20.048,6.016,22.251,0,11.012,0,11.012,4.637,5.8,15.232-.4c0,0-3.408-3.808-3.205-8.422s-4.637-29.866-4.637-29.866.58-9.621-4.208-15.649-12.745-29.055-12.745-29.055l-5.518-11.87Z" transform="translate(-388.601 -261.792)"/>
    <g id="Group_5" data-name="Group 5" class="cls-14" transform="translate(418.714 243.733)">
      <path id="Path_192" data-name="Path 192" d="M809.222,602.594s9.019-31.669,13.232-34.677a19.123,19.123,0,0,0,3.478-3.292,12.752,12.752,0,0,0,2.9-8.891l-1.768-31.118,29.559-18.222-.4-.864L825.26,524.622l1.768,31.118a12.752,12.752,0,0,1-2.9,8.891,19.129,19.129,0,0,1-3.478,3.292c-4.2,3-13.232,34.671-13.232,34.671s10.224.58,13.029,2.608a6.133,6.133,0,0,1,.075-.817C816.578,603.029,809.222,602.594,809.222,602.594Z" transform="translate(-807.42 -505.53)"/>
      <path id="Path_193" data-name="Path 193" d="M903.342,627s1.606-8.821,0-11.012-6.016-22.251-6.016-22.251v-6.828c-8.016-2.805-17.44-19.045-17.44-19.045l-.7,1.82c2.718,4.312,9.969,15.011,16.339,17.237v6.816s4.411,20.048,6.016,22.251,0,11.012,0,11.012,2.237,2.817,7.175,2.434A7.856,7.856,0,0,1,903.342,627Z" transform="translate(-837.593 -531.734)"/>
    </g>
    <path id="Path_194" data-name="Path 194" class="cls-20" d="M952.64,464.956l-3.935.261-2.075.139v-5.013l2.724-.493,1.687-.307s5.216-15.435,10.224-12.629S952.64,464.956,952.64,464.956Z" transform="translate(-447.231 -237.01)"/>
    <path id="Path_195" data-name="Path 195" class="cls-20" d="M845.571,407s-2.608,10.021-3.408,16.229,18.64,1.206,18.64,1.206-7.419-9.018-3.205-13.829Z" transform="translate(-403.302 -220.374)"/>
    <path id="Path_196" data-name="Path 196" class="cls-10" d="M866.057,454.255l.4,3.808-6.213-.4-6.213-5.413L847.817,434.8l-4-6.219-3.008-3.808,1.206-4.637s.551.481,1.478,1.188c3.054,2.318,10.212,7.193,15.446,5.848a6.235,6.235,0,0,0,.713-.226l7.819,13.429Z" transform="translate(-402.744 -225.898)"/>
    <path id="Path_197" data-name="Path 197" class="cls-6" d="M832.845,418.106s-3.205.58-5.413,5.413c-1.692,3.7-7.419,7.535-9.975,9.082a4.277,4.277,0,0,0-1.942,2.7c-.516,2.284-.713,6.544,2.092,12.67,4.411,9.621,7.616,13.829,7.616,13.829s.8,9.621-.4,12.426,0,18.24,0,18.24,21.045,4.011,28.064,0,6.016-19.445,6.016-19.445,6.613,14.032,9.018,14.432l-1.4-7.819s-7.819-8.422-8.219-19.242c0,0-2.405-9.824-.4-12.426,0,0,33.877,2.805,35.883.4,0,0-22.251-1-25.659-6.416,0,0-9.824-7.819-10.224-13.029a5.761,5.761,0,0,0-3.008-4.724,7.848,7.848,0,0,0-4.492-1l-4.527.313s7.819,13.829,7.419,15.649.4,16.437.4,16.437-9.047-19.445-13.029-21.648-8.624-11.267-8.624-11.267l.8-4.579" transform="translate(-391.979 -225.04)"/>
    <path id="Path_198" data-name="Path 198" class="cls-6" d="M866.057,454.255l.4,3.808-6.213-.4-6.213-5.413L847.817,434.8l-4-6.219-3.008-3.808,1.206-4.637s.551.481,1.478,1.188l-.278,1.582s4.637,9.053,8.619,11.261,13.029,21.648,13.029,21.648-.8-14.635-.4-16.437c.272-1.223-3.24-7.981-5.524-12.206a6.243,6.243,0,0,0,.713-.226l7.819,13.429Z" transform="translate(-402.744 -225.898)"/>
    <path id="Path_199" data-name="Path 199" class="cls-6" d="M948.7,474.847l-2.075.139v-5.013l2.724-.493C948.4,470.738,948.438,472.963,948.7,474.847Z" transform="translate(-447.231 -246.641)"/>
    <path id="Path_200" data-name="Path 200" class="cls-19" d="M832.845,417.08s-3.205.58-5.413,5.413c-1.692,3.7-7.419,7.535-9.975,9.082a4.277,4.277,0,0,0-1.942,2.7c-.516,2.284-.713,6.544,2.092,12.67,4.411,9.621,7.616,13.829,7.616,13.829s.8,9.621-.4,12.426,0,18.24,0,18.24,21.045,4.011,28.064,0S858.9,472,858.9,472s6.607,14.009,9.018,14.438l-1.4-7.819s-7.819-8.421-8.219-19.242c0,0-2.405-9.824-.4-12.426,0,0,7.819,8.421,16.64,8.219a165.974,165.974,0,0,1,19.242,1s-2.005-6.416,0-8.821c0,0-22.251-1-25.659-6.416,0,0-9.824-7.819-10.224-13.029a5.761,5.761,0,0,0-3.008-4.724,7.848,7.848,0,0,0-4.492-1l-4.527.313s7.819,13.829,7.419,15.649.4,16.437.4,16.437-9.047-19.457-13.029-21.659-8.624-11.244-8.624-11.244l.8-4.579" transform="translate(-391.979 -224.612)"/>
    <path id="Path_201" data-name="Path 201" class="cls-6" d="M833.943,453.39s4.811,16.229,7.616,18.24,19.845,12.229,24.859,9.824c0,0,1.206,6.016-.58,7.419,0,0-18.692-.73-18.843-.8,0,0-12.229-1.605-14.235-7.616s-4.411-16.229-4.411-16.229Z" transform="translate(-397.505 -239.877)"/>
    <ellipse id="Ellipse_43" data-name="Ellipse 43" class="cls-21" cx="0.701" cy="1.003" rx="0.701" ry="1.003" transform="translate(461.412 229.852)"/>
    <ellipse id="Ellipse_44" data-name="Ellipse 44" class="cls-21" cx="0.701" cy="1.003" rx="0.701" ry="1.003" transform="translate(463.412 236.865)"/>
    <g id="Group_6" data-name="Group 6" class="cls-14" transform="translate(423.226 192.451)">
      <path id="Path_202" data-name="Path 202" d="M826.232,491.209s-1.206-15.435,0-18.24.4-12.426.4-12.426-3.205-4.208-7.616-13.829c-2.811-6.126-2.608-10.386-2.092-12.67a4.278,4.278,0,0,1,1.942-2.7c2.556-1.565,8.277-5.384,9.975-9.082a10.466,10.466,0,0,1,3.93-4.77l.075-.44s-3.205.58-5.413,5.413c-1.692,3.7-7.419,7.535-9.975,9.082a4.277,4.277,0,0,0-1.942,2.7c-.516,2.284-.713,6.544,2.092,12.67,4.411,9.621,7.616,13.829,7.616,13.829s.8,9.621-.4,12.426,0,18.24,0,18.24,15.035,2.863,23.926,1.327C839.771,493.811,826.232,491.209,826.232,491.209Z" transform="translate(-815.205 -417.05)"/>
      <path id="Path_203" data-name="Path 203" d="M875.529,441.98c-.272,1.235,0,8.5.226,12.948.968,1.976,1.577,3.292,1.577,3.292s-.8-14.635-.4-16.437c.382-1.739-6.66-14.293-7.361-15.533l-1.46.1S875.934,440.178,875.529,441.98Z" transform="translate(-837.447 -420.918)"/>
      <path id="Path_204" data-name="Path 204" d="M907.564,476.479c-8.821.2-16.64-8.219-16.64-8.219a3.21,3.21,0,0,0-.5,1.084c2.318,2.156,8.694,7.494,15.742,7.332a165.97,165.97,0,0,1,19.243,1s-.041-.133-.1-.359A159.583,159.583,0,0,0,907.564,476.479Z" transform="translate(-846.826 -438.579)"/>
      <path id="Path_205" data-name="Path 205" d="M893,511.49s.081,1.252.035,3.13c2.087,4.138,5.883,11.215,7.581,11.5l-.3-1.646C897.4,520.81,893,511.49,893,511.49Z" transform="translate(-847.911 -456.753)"/>
    </g>
    <path id="Path_206" data-name="Path 206" class="cls-20" d="M897.172,495.46l-4.26.9-3.362.707,1.8-5.013,1.258-.313,1.953-.487s2.805-14.032,8.421-13.029S897.172,495.46,897.172,495.46Z" transform="translate(-423.234 -250.295)"/>
    <path id="Path_207" data-name="Path 207" class="cls-6" d="M892.922,506.229l-3.362.707,1.8-5.013,1.258-.313A20.01,20.01,0,0,1,892.922,506.229Z" transform="translate(-423.239 -260.149)"/>
    <path id="Path_208" data-name="Path 208" class="cls-19" d="M833.943,452.7s4.811,16.229,7.616,18.24,19.845,12.229,24.859,9.824c0,0,1.206,6.016-.58,7.419,0,0-18.692-.73-18.843-.8,0,0-12.229-1.605-14.235-7.616s-4.411-16.229-4.411-16.229Z" transform="translate(-397.505 -239.587)"/>
    <path id="Path_209" data-name="Path 209" class="cls-6" d="M847.711,407.74s-.406,1.571-.951,3.854a10.821,10.821,0,0,0,11.945,5.506,6.23,6.23,0,0,1,1.032-5.75Z" transform="translate(-405.245 -220.685)"/>
    <circle id="Ellipse_45" data-name="Ellipse 45" class="cls-20" cx="10.827" cy="10.827" r="10.827" transform="translate(440.06 174.623)"/>
    <path id="Path_210" data-name="Path 210" class="cls-6" d="M861.473,386.452a5.8,5.8,0,0,0,2.411.151,3.97,3.97,0,0,0,2.933-3.785,5.8,5.8,0,0,0-2.231-4.469c-.916-.765-2.011-1.3-2.852-2.156a22.14,22.14,0,0,1-2.318-3.564,10.578,10.578,0,0,0-5.431-4.225c-1.658-.58-3.692-.626-4.967.58-.655.62-1.037,1.507-1.768,2.034-1.061.753-2.5.533-3.791.684a7.227,7.227,0,0,0-5.448,4.057,10.207,10.207,0,0,0-.533,6.955c.249.985.62,1.936.887,2.9.58,2.04.7,4.179,1.345,6.19s1.988,3.982,4.017,4.585a12.7,12.7,0,0,1,1.292-6.544,1.878,1.878,0,0,1,.916-1.02,2.214,2.214,0,0,1,1.1,0,11.012,11.012,0,0,0,7.332-1.484c.771-.464,1.971-2.063,2.788-2.22C858.209,384.939,860.371,386.209,861.473,386.452Z" transform="translate(-401.185 -203.982)"/>
    <path id="Path_211" data-name="Path 211" class="cls-22" d="M861.473,385.762a5.8,5.8,0,0,0,2.411.151,3.97,3.97,0,0,0,2.933-3.785,5.8,5.8,0,0,0-2.231-4.469c-.916-.765-2.011-1.3-2.852-2.156a22.135,22.135,0,0,1-2.318-3.564,10.578,10.578,0,0,0-5.431-4.225c-1.658-.58-3.692-.626-4.967.58-.655.62-1.037,1.507-1.768,2.034-1.061.753-2.5.533-3.791.684a7.227,7.227,0,0,0-5.448,4.057,10.207,10.207,0,0,0-.533,6.955c.249.985.62,1.936.887,2.9.58,2.04.7,4.179,1.345,6.19s1.988,3.982,4.017,4.585a12.7,12.7,0,0,1,1.3-6.538,1.878,1.878,0,0,1,.916-1.02,2.214,2.214,0,0,1,1.1,0,11.012,11.012,0,0,0,7.332-1.484c.771-.464,1.971-2.063,2.788-2.22C858.209,384.249,860.371,385.519,861.473,385.762Z" transform="translate(-401.185 -203.692)"/>
    <path id="Path_212" data-name="Path 212" class="cls-23" d="M947.67,337.49l-4.5,50.454-20.247,5.616-20.19-5.616-4.5-50.454Z" transform="translate(-421.883 -143.33)"/>
    <path id="Path_213" data-name="Path 213" class="cls-24" d="M981.86,399.1l16.36-4.534,3.842-43.118h-20.2Z" transform="translate(-480.795 -153.164)"/>
    <path id="Path_214" data-name="Path 214" class="cls-25" d="M936.123,378.579h8.755V372.39H929.36l.148,1.661,1.522,17.055H944.88v-6.189h-8.19ZM937.53,394.2h-6.207l.866,9.718,12.662,3.529h.03V400.99h-.027l-6.893-1.862Z" transform="translate(-443.812 -167.914)"/>
    <path id="Path_215" data-name="Path 215" d="M913.8,291.09h3.145V294.2h2.876V291.09h3.145V300.5h-3.145V297.35h-2.876V300.5H913.8Zm13.3,3.121h-2.769V291.09h8.684v3.121h-2.769v6.29H927.1v-6.29h0Zm7.295-3.121h3.281L939.7,294.4l2.016-3.307h3.281V300.5h-3.133v-4.664l-2.164,3.346h-.053l-2.167-3.346V300.5H934.4Zm12.16,0H949.7v6.3h4.434V300.5h-7.57V291.09Z" transform="translate(-432.851 -110.644)"/>
    <path id="Path_216" data-name="Path 216" class="cls-26" d="M981.79,391.1h7.62l-.718,8.028-6.9,1.862v6.452l12.689-3.517.092-1.046,1.454-16.295.151-1.661H981.79v6.189Zm0-12.541v.015h14.95l.124-1.392.3-3.139.148-1.661H981.79v6.174Z" transform="translate(-480.745 -167.907)"/>
    <path id="Path_217" data-name="Path 217" class="cls-27" d="M387.814,429.194c-1.13-3.309-2.759-7.535-4.057-8.5a1.212,1.212,0,0,0-.255-.156h-.162v-4.086l-3.049.487a29.137,29.137,0,0,1-1.107-4.527,2.1,2.1,0,0,0,2.289.458c-.052-.081-.093-.168-.139-.255l.139-.058a5.663,5.663,0,0,1-.736-2.776,10.107,10.107,0,0,1,.423-2.62c.545-1.884,1.466-3.646,1.982-5.535a13.461,13.461,0,0,0,.464-3.744,13.644,13.644,0,0,0-1.426-6.173A3.605,3.605,0,0,0,381.1,390.3a13.9,13.9,0,0,0-1.321-.643,7.134,7.134,0,0,1-1.918-1.913,17.237,17.237,0,0,0-8.329-5.558,4.874,4.874,0,0,0-2.66-.209c-2.046.58-2.794,3.089-4.451,4.417-1.466,1.159-3.478,1.292-5.309,1.687a9.03,9.03,0,0,0-4.944,2.591,5.367,5.367,0,0,0-1.327,3.582,3.6,3.6,0,0,0,1.466,3.2,4.6,4.6,0,0,0,3.883.551,13.209,13.209,0,0,0,10,16.605l.359.638h0a27.352,27.352,0,0,1,2.475,6.474c-2.805,1.594-5.871,3.083-7.72,3.223a13.016,13.016,0,0,1-.4,2.139,11.806,11.806,0,0,1-2.428,4.782c-2.515,2.828-13.835,24.215-13.835,24.215s-.359.852-.939,2.318c-7.03.864-18.5,2.11-21.706,1.466l-12.577-11.951s-4.057,3.1-3.709,6.868l-2.266-2.156s-11.951,9.117,6.92,15.069l28.713,3.333c-2.736,8.253-5.286,17.857-4.5,23.085h.238a10.848,10.848,0,0,0,1.64-.128l-.052.927-2.765,49.515s-.632,9.117,7.859,13.209c0,0,10.38,30.5,6.289,33.964,0,0,.487.255,1.3.614l-8.537,7.535s-6.289,1.571-9.749,1.258a2.5,2.5,0,0,0-2.759,1.86.408.408,0,0,1-.035.2v.609a.365.365,0,0,0,.041.2v.075a1.987,1.987,0,0,0,.07.214v.07c.029.07.064.139.1.209v.046c.041.07.081.139.128.209l.041.058q.075.11.168.22l.046.058c.064.075.133.145.209.22h.035l.232.2.052.041.284.2.07.046.33.191h.052l.354.174h.052l.411.168.087.035.458.151h.075l.493.128h.041l.58.11h.11l.58.087h.11l.667.064c1.293.1,3.037.133,5.054.127h0v.325a.365.365,0,0,0,.041.2v.075a1.987,1.987,0,0,0,.07.214v.07c.029.07.064.139.1.209v.046c.041.069.081.139.128.209l.041.058q.075.11.168.22l.046.058c.064.075.133.145.209.22h.029l.232.2.052.041.284.2.07.046.325.191h.052l.354.174h.052l.411.168.087.035.458.151h.075l.493.128h.041l.58.11h.11l.58.087h.11l.667.064c8.178.632,34.277-1.258,34.277-1.258v-.075h0v-.093h0c.261-1.217,1.513-8.294-2.939-13.528q.2-.209.383-.435s-3.478-5.976-1.571-7.859-9.21-34.3-9.21-34.3-5.976-9.436-2.515-20.129-.313-22.326-.313-22.326,8.259-2.446,8.41-12.606v-.945a3.337,3.337,0,0,0,.522.035,2.459,2.459,0,0,0,.348,0s-1.571-5.663.313-9.749,5.976-.313,9.749-16.982c2.73-12.061,5.129-25.931,6.254-32.683A17.208,17.208,0,0,0,387.814,429.194Zm-71.765,35.355-2.869-2.724c.951.394,2.005.777,3.182,1.159l10.809,1.269c-4.822.435-9.326.678-11.122.313Z" transform="translate(-175.262 -209.815)"/>
    <path id="Path_218" data-name="Path 218" class="cls-11" d="M344.009,514.821s-22.245,3.089-26.881,2.162L304.77,505.24s-11.743,8.961,6.8,14.832l34.6,4.017Z" transform="translate(-175.847 -261.675)"/>
    <path id="Path_219" data-name="Path 219" class="cls-28" d="M344.009,514.821s-22.245,3.089-26.881,2.162L304.77,505.24s-11.743,8.961,6.8,14.832l34.6,4.017Z" transform="translate(-175.847 -261.675)"/>
    <path id="Path_220" data-name="Path 220" class="cls-29" d="M228.254,372.3l-24.267-6.73L198.58,304.92H258l-5.413,60.645Z" transform="translate(-88.745 -115.634)"/>
    <path id="Path_221" data-name="Path 221" class="cls-30" d="M319.8,373.7l4.626-51.823H300.14v57.262Z" transform="translate(-160.59 -127.632)"/>
    <path id="Path_222" data-name="Path 222" class="cls-25" d="M237.725,362.327l.667,7.438H255.04v-7.438Zm-1.34-15.057.676,7.438h17.977V347.27H236.37Zm18.652,34.376H255l-8.286-2.238-.53-5.934h-7.481l1.042,11.68,15.238,4.24h.035Z" transform="translate(-115.478 -145.593)"/>
    <path id="Path_223" data-name="Path 223" d="M246.38,248.56h9.009v3.769h-5.243V256.1h5.243v3.769H246.38Zm10.826,0h9.009v3.277H260.96v.655H266.2v7.537h-9.012v-3.441h5.243v-.655h-5.243V248.56Zm10.826,0h9.009v3.277h-5.269v.655h5.243v7.537H268v-3.441h5.243v-.655H268V248.56Z" transform="translate(-122.56 -75.765)"/>
    <path id="Path_224" data-name="Path 224" class="cls-26" d="M317.3,362.327l1.343-15.057H300v7.438h10.483l-.676,7.607H300v7.438h9.161l-.878,9.655L300,381.652v7.739l15.25-4.228.111-1.258,1.755-19.586.181-2Z" transform="translate(-160.491 -145.593)"/>
    <path id="Path_225" data-name="Path 225" class="cls-31" d="M372.207,738.19l-10.815,9.575s-6.178,1.548-9.575,1.235-4.944,5.251,3.089,5.871,33.674-1.235,33.674-1.235,2.469-9.888-4.944-15.446Z" transform="translate(-196.006 -359.609)"/>
    <path id="Path_226" data-name="Path 226" class="cls-28" d="M372.207,738.19l-10.815,9.575s-6.178,1.548-9.575,1.235-4.944,5.251,3.089,5.871,33.674-1.235,33.674-1.235,2.469-9.888-4.944-15.446Z" transform="translate(-196.006 -359.609)"/>
    <path id="Path_227" data-name="Path 227" class="cls-32" d="M388.961,757.47a17.043,17.043,0,0,1-.388,3.35s-25.641,1.855-33.674,1.234c-3.866-.3-5.506-1.739-5.8-3.118-.354,1.588,1.049,3.68,5.8,4.057,8.033.62,33.674-1.235,33.674-1.235A17.851,17.851,0,0,0,388.961,757.47Z" transform="translate(-196.004 -367.714)"/>
    <path id="Path_228" data-name="Path 228" class="cls-11" d="M410.84,429.694s6.8,9.575,4.324,16.066,12.977-6.8,12.977-6.8S423.2,430.273,425.672,421Z" transform="translate(-221.981 -226.26)"/>
    <path id="Path_229" data-name="Path 229" class="cls-31" d="M390.856,744.59l-10.8,9.575s-6.178,1.548-9.575,1.235-4.944,5.251,3.089,5.871,33.674-1.234,33.674-1.234,2.469-9.888-4.944-15.446Z" transform="translate(-203.851 -362.299)"/>
    <path id="Path_230" data-name="Path 230" class="cls-12" d="M390.135,659.3a8.2,8.2,0,0,1-6.26,2.869c-5.4.255-11.348-2.869-11.348-2.869,4.017-3.4-6.178-33.367-6.178-33.367-8.34-4.017-7.726-12.977-7.726-12.977l2.7-48.628.684-12.218,8.653-5.251,6.816,5.216,6.468,4.961a26,26,0,0,1,.811,4.822c.753,11.354-8.224,14.026-8.224,14.026s3.709,11.43.307,21.938,2.469,19.776,2.469,19.776,11.122,32.133,9.273,33.987S390.135,659.3,390.135,659.3Z" transform="translate(-200.024 -279.172)"/>
    <path id="Path_231" data-name="Path 231" class="cls-28" d="M390.135,659.3a8.2,8.2,0,0,1-6.26,2.869c-5.4.255-11.348-2.869-11.348-2.869,4.017-3.4-6.178-33.367-6.178-33.367-8.34-4.017-7.726-12.977-7.726-12.977l2.7-48.628.684-12.218,8.653-5.251,6.816,5.216,6.468,4.961a26,26,0,0,1,.811,4.822c.753,11.354-8.224,14.026-8.224,14.026s3.709,11.43.307,21.938,2.469,19.776,2.469,19.776,11.122,32.133,9.273,33.987S390.135,659.3,390.135,659.3Z" transform="translate(-200.024 -279.172)"/>
    <path id="Path_232" data-name="Path 232" class="cls-12" d="M405.186,665.683c-5.251,6.486-17.608,0-17.608,0a1.971,1.971,0,0,0,.539-.84c2.266-6.161-7.645-35.616-7.645-35.616-8.34-4.017-9.273-13.591-9.273-13.591l-2.185-49.509-.284-6.41,13-4.961,3.993-1.524,13.3,10.2a24.094,24.094,0,0,1,.835,6.48c-.168,9.975-8.265,12.386-8.265,12.386s3.709,11.43.307,21.938,2.487,19.747,2.487,19.747,11.122,32.133,9.273,33.987S405.186,665.683,405.186,665.683Z" transform="translate(-204.278 -281.85)"/>
    <path id="Path_233" data-name="Path 233" class="cls-6" d="M397.573,567.231c-2.672-.383-8.08-3.6-10.856-5.344-1.061-.667-1.739-1.113-1.739-1.113s-2.782-7.726-10.2-1.855a27.756,27.756,0,0,1-8.056,4.556,18.849,18.849,0,0,1-3.437.864l.684-12.218,8.653-5.251,6.816,5.216,3.993-1.524,13.3,10.189a24.094,24.094,0,0,1,.835,6.48Z" transform="translate(-201.991 -279.176)"/>
    <path id="Path_234" data-name="Path 234" class="cls-33" d="M412.895,464.693c-1.1,6.631-3.478,20.286-6.144,32.1-3.709,16.373-7.726,12.664-9.575,16.681s-.307,9.575-.307,9.575c-3.089.307-13.284-6.486-13.284-6.486s-2.782-7.726-10.2-1.855-13.284,5.558-13.284,5.558c-1.547-10.2,9.888-37.384,9.888-37.384s11.122-21.01,13.591-23.763a11.592,11.592,0,0,0,2.388-4.695,12.783,12.783,0,0,0,.394-2.1c4.017-.307,13.91-7.106,13.91-7.106L408,443.99v4.017a1.157,1.157,0,0,1,.255.156c1.269.968,2.9,5.095,3.982,8.346A16.906,16.906,0,0,1,412.895,464.693Z" transform="translate(-200.591 -235.925)"/>
    <path id="Path_235" data-name="Path 235" class="cls-11" d="M356.309,516.1l-3.993-.464-30.608-3.553c-18.547-5.871-6.8-14.832-6.8-14.832l12.357,11.743c3.565.713,17.55-.951,23.815-1.739,1.878-.243,3.066-.406,3.066-.406Z" transform="translate(-180.108 -258.316)"/>
    <path id="Path_236" data-name="Path 236" class="cls-6" d="M415.348,457.124s-8.033-6.486-20.106,14.519-14.832,17.608-14.832,17.608,2.469,9.273,1.235,11.122c0,0,8.34-.62,11.43,0s22.245-23.479,22.245-23.479S425.236,463.3,415.348,457.124Z" transform="translate(-209.188 -241.049)"/>
    <path id="Path_237" data-name="Path 237" class="cls-6" d="M414.835,454.994s-8.033-6.486-20.083,14.519-14.832,17.608-14.832,17.608,9.575,10.5,12.664,11.122,22.245-23.479,22.245-23.479S424.723,461.173,414.835,454.994Z" transform="translate(-208.982 -240.154)"/>
    <path id="Path_238" data-name="Path 238" class="cls-6" d="M381.2,522.614a37.139,37.139,0,0,0-1.235-8.4c1.878-.243,3.066-.406,3.066-.406l2.162,9.273Z" transform="translate(-209.003 -265.278)"/>
    <path id="Path_239" data-name="Path 239" class="cls-33" d="M415.348,456.055s-8.033-6.486-20.106,14.525-14.832,17.608-14.832,17.608,2.469,9.274,1.235,11.122c0,0,8.34-.62,11.43,0s22.245-23.479,22.245-23.479S425.236,462.233,415.348,456.055Z" transform="translate(-209.188 -240.599)"/>
    <path id="Path_240" data-name="Path 240" class="cls-6" d="M426.225,422.09l-14.855,8.642a31.7,31.7,0,0,1,1.739,2.828,13.034,13.034,0,0,0,2.6.261c3.959,0,5.8-4.156,8.19-6.955C423.721,424.64,425.541,424.582,426.225,422.09Z" transform="translate(-222.204 -226.718)"/>
    <circle id="Ellipse_46" data-name="Ellipse 46" class="cls-11" cx="12.977" cy="12.977" r="12.977" transform="translate(180.206 180.546)"/>
    <path id="Path_241" data-name="Path 241" class="cls-6" d="M389.044,394.521a8.868,8.868,0,0,1,4.857-2.55c1.8-.388,3.779-.5,5.216-1.658,1.629-1.3,2.359-3.785,4.37-4.341a4.793,4.793,0,0,1,2.614.209,16.93,16.93,0,0,1,8.184,5.46,7.008,7.008,0,0,0,1.889,1.884,13.678,13.678,0,0,1,1.3.632,3.541,3.541,0,0,1,1.055,1.385,13.435,13.435,0,0,1,.939,9.43c-.5,1.86-1.408,3.588-1.947,5.442a7.177,7.177,0,0,0,.307,5.61,2.288,2.288,0,0,1-2.747-1.014,10.872,10.872,0,0,1-1.09-3,11.447,11.447,0,0,0-3.35-5.216c-.974-.858-2.713-1.437-3.391-.33-.261.429-.243.979-.469,1.426a1.914,1.914,0,0,1-2.568.58,3.936,3.936,0,0,1-1.605-2.382c-1.269-4.306-3.443-7.013-8.045-5.176-1.739.684-3.738,1.159-5.39,0C387.056,399.355,387.479,396.278,389.044,394.521Z" transform="translate(-212.263 -211.495)"/>
    <path id="Path_242" data-name="Path 242" class="cls-34" d="M389.044,393.981a8.868,8.868,0,0,1,4.857-2.55c1.8-.388,3.779-.5,5.216-1.658,1.629-1.3,2.359-3.785,4.37-4.341a4.793,4.793,0,0,1,2.614.209,16.93,16.93,0,0,1,8.184,5.46,7.006,7.006,0,0,0,1.889,1.884,13.685,13.685,0,0,1,1.3.632A3.542,3.542,0,0,1,418.527,395a13.435,13.435,0,0,1,.939,9.43c-.5,1.861-1.408,3.588-1.947,5.442a7.177,7.177,0,0,0,.307,5.61,2.288,2.288,0,0,1-2.747-1.014,10.872,10.872,0,0,1-1.09-3,11.447,11.447,0,0,0-3.35-5.216c-.974-.858-2.713-1.437-3.391-.33-.261.429-.243.979-.469,1.426a1.914,1.914,0,0,1-2.568.58,3.935,3.935,0,0,1-1.605-2.382c-1.269-4.306-3.443-7.013-8.045-5.176-1.739.684-3.738,1.159-5.39,0C387.056,398.821,387.479,395.743,389.044,393.981Z" transform="translate(-212.263 -211.268)"/>
    <path id="Path_243" data-name="Path 243" class="cls-28" d="M427.1,448.127h-6.277S408.47,454.306,408.163,454c-.209-.209-2.121.151-3.333.4a12.78,12.78,0,0,0,.394-2.1c4.017-.307,13.91-7.106,13.91-7.106l7.726-1.234v4.017A1.158,1.158,0,0,1,427.1,448.127Z" transform="translate(-219.454 -235.912)"/>
    <path id="Path_244" data-name="Path 244" class="cls-32" d="M407.611,763.86a17.036,17.036,0,0,1-.388,3.35s-25.641,1.855-33.674,1.235c-3.866-.3-5.506-1.739-5.8-3.118-.354,1.588,1.049,3.68,5.8,4.057,8.033.62,33.674-1.234,33.674-1.234A17.853,17.853,0,0,0,407.611,763.86Z" transform="translate(-203.845 -370.4)"/>
    <g id="Group_7" data-name="Group 7" class="cls-35" transform="translate(159.584 212.053)">
      <path id="Path_245" data-name="Path 245" d="M370.606,563.889a26.442,26.442,0,0,1-10.276,5.216,4.33,4.33,0,0,0,.081.678s5.871.307,13.284-5.558a9.958,9.958,0,0,1,3.97-2.075C376.049,561.356,373.742,561.408,370.606,563.889Z" transform="translate(-360.33 -497.462)"/>
      <path id="Path_246" data-name="Path 246" d="M436.583,459.373c-1.107-3.251-2.712-7.372-3.982-8.346a1.159,1.159,0,0,0-.255-.156s-2.556.087-2.469.156c1.269.968,2.51,4.787,3.617,8.033a16.907,16.907,0,0,1,.672,8.207c-1.1,6.631-3.478,20.286-6.144,32.1-3.709,16.373-7.726,12.664-9.575,16.681-1.519,3.292-.759,7.616-.429,9.071a7.774,7.774,0,0,0,3.211.817s-1.548-5.558.307-9.575,5.871-.307,9.575-16.681c2.684-11.847,5.042-25.5,6.144-32.1a16.907,16.907,0,0,0-.672-8.207Z" transform="translate(-384.379 -450.87)"/>
    </g>
    <path id="Path_247" data-name="Path 247" class="cls-5" d="M496.709,557.324a6.764,6.764,0,0,0,2.22-3.35,2.973,2.973,0,0,0-1.553-3.414c-1.426-.545-2.95.44-4.1,1.443s-2.481,2.139-3.993,1.924a6.074,6.074,0,0,0,1.878-5.686,2.376,2.376,0,0,0-.522-1.159c-.794-.846-2.226-.481-3.176.185-3.014,2.121-3.854,6.213-3.872,9.9a18.977,18.977,0,0,1-.058-4.057c-.012-1.345-.383-2.9-1.53-3.605a4.637,4.637,0,0,0-2.318-.551,4.826,4.826,0,0,0-3.791,1.078c-1.159,1.229-.852,3.3.151,4.637a15.086,15.086,0,0,0,3.924,3.141,8.694,8.694,0,0,1,2.805,2.672,2.652,2.652,0,0,1,.209.475h8.491A23.666,23.666,0,0,0,496.709,557.324Z" transform="translate(-249.016 -279.059)"/>
    <path id="Path_248" data-name="Path 248" class="cls-5" d="M518.061,742.314a9.23,9.23,0,0,0,3.014-4.544c.394-1.8-.377-3.97-2.1-4.637-1.93-.742-4,.58-5.564,1.953s-3.362,2.9-5.408,2.608a8.236,8.236,0,0,0,2.544-7.709,3.223,3.223,0,0,0-.707-1.565c-1.072-1.159-3.02-.655-4.3.249-4.057,2.9-5.216,8.421-5.245,13.417-.411-1.8-.064-3.68-.075-5.529s-.516-3.895-2.075-4.892a6.253,6.253,0,0,0-3.165-.742c-1.837-.07-3.883.116-5.135,1.461-1.559,1.669-1.159,4.469.2,6.306s3.42,2.991,5.315,4.26a11.789,11.789,0,0,1,3.8,3.622,3.589,3.589,0,0,1,.284.649h11.516a32.082,32.082,0,0,0,7.106-4.909Z" transform="translate(-254.771 -355.218)"/>
  </g>
</svg>
